# xmcd
#
# Track frame offsets:
#	150
#	20959
#	34570
#	53759
#	71083
#	89501
#	104255
#	123807
#	141598
#	155637
#	170480
#	185639
#	200409
#	215325
#	234353
#
# Disc length: 3305 seconds
#
# Revision: 0
# Processed by: cddbd v1.5.2PL0 Copyright (c) Steve Scherf et al.
# Submitted via: audiograbber 1.83.01
#
DISCID=da0ce70f
DTITLE=Minos 98 - Cd 2
DYEAR=1900
DGENRE=
TTITLE0=Μητροπάνος Δημήτρης  - Ρόζα
TTITLE1=Χατζημανώλης Μανώλης - Μοναξιά Στην Εθνική 
TTITLE2=Βανδή Δέσποινα  - Εσένα Περιμένω 
TTITLE3=Βοσκόπουλος Τόλης  - Γαλανομάτα Μάγισσα 
TTITLE4=Σφακιανάκης Νότης - Νταβατζής 
TTITLE5=Χαλικιόπουλος Σπύρος  - Τσιγάρα Μπουκάλια 
TTITLE6=Καρράς Βασίλης  - Τηλεφώνησε Μου 
TTITLE7=Κωνσταντίνα  - Χόρεψε 
TTITLE8=Πάριος Γιάννης  - Νάμουν Κραγιον 
TTITLE9=Κούκα Κατερίνα  - Θέλω Να Παρεις Ι.Χ. 
TTITLE10=Βενιέρης Αντώνης  - Μπαμ Και Κάτω 
TTITLE11=Αντύπας  - Η Καλύτερη Μου Φάση 
TTITLE12=Δημητρίου ’ντζελα  - Είναι Κάτι Χαρακτήρες 
TTITLE13=Σινιώρης Παύλος  - Βλέπω Κάτι Όνειρα 
TTITLE14=Διονυσίου ’γγελος - ’φεση Αμαρτιών 
EXTD=
EXTT0=
EXTT1=
EXTT2=
EXTT3=
EXTT4=
EXTT5=
EXTT6=
EXTT7=
EXTT8=
EXTT9=
EXTT10=
EXTT11=
EXTT12=
EXTT13=
EXTT14=
PLAYORDER=
